<svg xmlns="http://www.w3.org/2000/svg" width="513" height="512" viewBox="0 0 513 512" fill="none"><g clip-path="url(#clip0_1_70)"><mask id="mask0_1_70" style="mask-type:luminance" maskUnits="userSpaceOnUse" x="0" y="0" width="513" height="512"><path d="M1 0.5H512V511.5H1V0.5Z" fill="white" stroke="url(#paint0_linear_1_70)"></path></mask><g mask="url(#mask0_1_70)"><mask id="mask1_1_70" style="mask-type:luminance" maskUnits="userSpaceOnUse" x="0" y="0" width="513" height="512"><path d="M501.5 501V11H11.5V501H501.5Z" fill="white" stroke="white" stroke-width="22"></path></mask><g mask="url(#mask1_1_70)"><path d="M303.525 186.094V118.606C303.525 92.6352 282.471 71.5812 256.5 71.5812C230.528 71.5812 209.474 92.6352 209.474 118.606V186.094H151.121V120.379C151.121 62.1792 198.3 15.0003 256.5 15.0003C314.699 15.0003 361.879 62.1792 361.879 120.379V186.094H303.525Z" stroke="url(#paint1_linear_1_70)" stroke-width="22" stroke-miterlimit="10" stroke-linecap="round" stroke-linejoin="round"></path><path d="M417.818 497H95.1814C89.6584 497 85.1814 492.523 85.1814 487V196.094C85.1814 190.571 89.6584 186.094 95.1814 186.094H417.818C423.341 186.094 427.818 190.571 427.818 196.094V487C427.818 492.523 423.341 497 417.818 497Z" stroke="url(#paint2_linear_1_70)" stroke-width="22" stroke-miterlimit="10" stroke-linecap="round" stroke-linejoin="round"></path><path d="M299.977 303.966C299.977 279.954 280.511 260.489 256.499 260.489C232.488 260.489 213.022 279.954 213.022 303.966C213.022 316.337 218.198 327.492 226.491 335.41L216.49 422.605H296.509L286.508 335.41C294.801 327.492 299.977 316.337 299.977 303.966Z" stroke="url(#paint3_linear_1_70)" stroke-width="22" stroke-miterlimit="10" stroke-linecap="round" stroke-linejoin="round"></path></g></g></g><defs><linearGradient id="paint0_linear_1_70" x1="256.5" y1="0" x2="256.5" y2="512" gradientUnits="userSpaceOnUse"><stop stop-color="#2CF3DA"></stop><stop offset="1" stop-color="#06B7A1"></stop></linearGradient><linearGradient id="paint1_linear_1_70" x1="256.5" y1="186.094" x2="256.5" y2="15.0003" gradientUnits="userSpaceOnUse"><stop stop-color="#2CF3DA"></stop><stop offset="1" stop-color="#06B7A1"></stop></linearGradient><linearGradient id="paint2_linear_1_70" x1="256.5" y1="497" x2="256.5" y2="186.094" gradientUnits="userSpaceOnUse"><stop stop-color="#2CF3DA"></stop><stop offset="1" stop-color="#06B7A1"></stop></linearGradient><linearGradient id="paint3_linear_1_70" x1="256.5" y1="422.605" x2="256.5" y2="260.489" gradientUnits="userSpaceOnUse"><stop stop-color="#2CF3DA"></stop><stop offset="1" stop-color="#06B7A1"></stop></linearGradient><clipPath id="clip0_1_70"><rect width="512" height="512" fill="white" transform="translate(0.5)"></rect></clipPath></defs></svg>