<svg xmlns="http://www.w3.org/2000/svg" width="512" height="512" viewBox="0 0 512 512" fill="none"><g clip-path="url(#clip0_1_101)"><path d="M362.668 405.668H149.332C66.9883 405.668 0 338.66 0 256.332C0 174.008 66.9883 107 149.332 107H362.668C445.012 107 512 174.008 512 256.332C512 338.66 445.012 405.668 362.668 405.668ZM149.332 139C84.6289 139 32 191.652 32 256.332C32 321.016 84.6289 373.668 149.332 373.668H362.668C427.371 373.668 480 321.016 480 256.332C480 191.652 427.371 139 362.668 139H149.332Z" fill="url(#paint0_linear_1_101)"></path><path d="M362.668 341.668C315.605 341.668 277.332 303.395 277.332 256.332C277.332 209.273 315.605 171 362.668 171C409.727 171 448 209.273 448 256.332C448 303.395 409.727 341.668 362.668 341.668ZM362.668 203C333.27 203 309.332 226.914 309.332 256.332C309.332 285.754 333.27 309.668 362.668 309.668C392.062 309.668 416 285.754 416 256.332C416 226.914 392.062 203 362.668 203Z" fill="url(#paint1_linear_1_101)"></path></g><defs><linearGradient id="paint0_linear_1_101" x1="256" y1="107" x2="256" y2="405.668" gradientUnits="userSpaceOnUse"><stop stop-color="#2CF3DA"></stop><stop offset="1" stop-color="#06B7A1"></stop></linearGradient><linearGradient id="paint1_linear_1_101" x1="362.666" y1="171" x2="362.666" y2="341.668" gradientUnits="userSpaceOnUse"><stop stop-color="#2CF3DA"></stop><stop offset="1" stop-color="#06B7A1"></stop></linearGradient><clipPath id="clip0_1_101"><rect width="512" height="512" fill="white"></rect></clipPath></defs></svg>