<svg xmlns="http://www.w3.org/2000/svg" width="512" height="512" viewBox="0 0 512 512" fill="none"><path d="M481.918 457.352H30.082C18.99 457.352 10 448.362 10 437.27V196.29C10 185.2 18.99 176.209 30.082 176.209H482.588C493.679 176.209 502 185.2 502 196.29V437.27C502 448.362 493.01 457.352 481.918 457.352Z" stroke="url(#paint0_linear_1_88)" stroke-width="20" stroke-miterlimit="10" stroke-linecap="round" stroke-linejoin="round"></path><path d="M431.045 417.189H80.9551C80.9551 400.183 67.1691 386.397 50.1631 386.397V247.164C67.1691 247.164 80.9551 233.378 80.9551 216.372H431.045C431.045 233.378 444.831 247.164 461.836 247.164V386.396C444.831 386.397 431.045 400.183 431.045 417.189Z" stroke="url(#paint1_linear_1_88)" stroke-width="20" stroke-miterlimit="10" stroke-linecap="round" stroke-linejoin="round"></path><path d="M60.856 176.209L419.455 55.6789C429.967 52.1449 440.721 58.0089 444.245 68.5209L480.441 176.209" stroke="url(#paint2_linear_1_88)" stroke-width="20" stroke-miterlimit="10" stroke-linecap="round" stroke-linejoin="round"></path><path d="M186.93 176.209L383.389 110.17C388.811 126.286 406.272 134.962 422.387 129.539L438.071 176.209" stroke="url(#paint3_linear_1_88)" stroke-width="20" stroke-miterlimit="10" stroke-linecap="round" stroke-linejoin="round"></path><path d="M286.071 413.408C339.218 396.804 368.841 340.26 352.238 287.113C335.634 233.967 279.09 204.343 225.943 220.947C172.796 237.55 143.172 294.094 159.776 347.241C176.38 400.388 232.924 430.012 286.071 413.408Z" stroke="url(#paint4_linear_1_88)" stroke-width="20" stroke-miterlimit="10" stroke-linecap="round" stroke-linejoin="round"></path><path d="M273.16 279.147C271.651 277.747 263.709 270.111 248.34 274.673C234.624 279.18 231.082 297.751 240.477 305.119C245.871 309.349 253.987 312.827 264.924 316.694C289.406 325.347 280.356 359.872 255.453 360.038C245.734 360.102 241.191 359.486 232.654 353.9" stroke="url(#paint5_linear_1_88)" stroke-width="20" stroke-miterlimit="10" stroke-linecap="round" stroke-linejoin="round"></path><path d="M255.455 377.681V360.039" stroke="url(#paint6_linear_1_88)" stroke-width="20" stroke-miterlimit="10" stroke-linecap="round" stroke-linejoin="round"></path><path d="M255.455 273.323V256.699" stroke="url(#paint7_linear_1_88)" stroke-width="20" stroke-miterlimit="10" stroke-linecap="round" stroke-linejoin="round"></path><path d="M401.592 316.781H421.674" stroke="url(#paint8_linear_1_88)" stroke-width="20" stroke-miterlimit="10" stroke-linecap="round" stroke-linejoin="round"></path><path d="M90.3259 316.781H110.408" stroke="url(#paint9_linear_1_88)" stroke-width="20" stroke-miterlimit="10" stroke-linecap="round" stroke-linejoin="round"></path><defs><linearGradient id="paint0_linear_1_88" x1="256" y1="176.209" x2="256" y2="457.352" gradientUnits="userSpaceOnUse"><stop stop-color="#2CF3DA"></stop><stop offset="1" stop-color="#06B7A1"></stop></linearGradient><linearGradient id="paint1_linear_1_88" x1="256" y1="216.372" x2="256" y2="417.189" gradientUnits="userSpaceOnUse"><stop stop-color="#2CF3DA"></stop><stop offset="1" stop-color="#06B7A1"></stop></linearGradient><linearGradient id="paint2_linear_1_88" x1="270.648" y1="54.6482" x2="270.648" y2="176.209" gradientUnits="userSpaceOnUse"><stop stop-color="#2CF3DA"></stop><stop offset="1" stop-color="#06B7A1"></stop></linearGradient><linearGradient id="paint3_linear_1_88" x1="312.5" y1="110.17" x2="312.5" y2="176.209" gradientUnits="userSpaceOnUse"><stop stop-color="#2CF3DA"></stop><stop offset="1" stop-color="#06B7A1"></stop></linearGradient><linearGradient id="paint4_linear_1_88" x1="225.943" y1="220.947" x2="286.071" y2="413.408" gradientUnits="userSpaceOnUse"><stop stop-color="#2CF3DA"></stop><stop offset="1" stop-color="#06B7A1"></stop></linearGradient><linearGradient id="paint5_linear_1_88" x1="256" y1="273.236" x2="256" y2="360.042" gradientUnits="userSpaceOnUse"><stop stop-color="#2CF3DA"></stop><stop offset="1" stop-color="#06B7A1"></stop></linearGradient><linearGradient id="paint6_linear_1_88" x1="255.955" y1="360.039" x2="255.955" y2="377.681" gradientUnits="userSpaceOnUse"><stop stop-color="#2CF3DA"></stop><stop offset="1" stop-color="#06B7A1"></stop></linearGradient><linearGradient id="paint7_linear_1_88" x1="255.955" y1="256.699" x2="255.955" y2="273.323" gradientUnits="userSpaceOnUse"><stop stop-color="#2CF3DA"></stop><stop offset="1" stop-color="#06B7A1"></stop></linearGradient><linearGradient id="paint8_linear_1_88" x1="411.633" y1="316.781" x2="411.633" y2="317.781" gradientUnits="userSpaceOnUse"><stop stop-color="#2CF3DA"></stop><stop offset="1" stop-color="#06B7A1"></stop></linearGradient><linearGradient id="paint9_linear_1_88" x1="100.367" y1="316.781" x2="100.367" y2="317.781" gradientUnits="userSpaceOnUse"><stop stop-color="#2CF3DA"></stop><stop offset="1" stop-color="#06B7A1"></stop></linearGradient></defs></svg>