<svg xmlns="http://www.w3.org/2000/svg" width="512" height="512" viewBox="0 0 512 512" fill="none"><g clip-path="url(#clip0_1_38)"><path d="M255.999 256.03H285.996V406.013H255.999V256.03Z" fill="url(#paint0_linear_1_38)"></path><path d="M241.001 406.013V256.03H201.736L181.008 297.485L160.282 256.03H121.016V406.013H151.012V304.566L181.008 364.559L211.005 304.566V406.013H241.001Z" fill="url(#paint1_linear_1_38)"></path><path d="M375.985 348.299L341.384 256.03H300.994V406.013H330.991V313.744L365.592 406.013H405.982V256.03H375.985V348.299Z" fill="url(#paint2_linear_1_38)"></path><path d="M151.012 121.047V136.045H181.008V121.047C181.008 112.777 187.737 106.048 196.007 106.048C204.277 106.048 211.005 112.777 211.005 121.047C211.005 129.317 204.277 136.045 196.007 136.045V166.041C204.277 166.041 211.005 172.769 211.005 181.039C211.005 189.309 204.277 196.038 196.007 196.038C187.737 196.038 181.008 189.309 181.008 181.039V166.041H151.012V181.039C151.012 205.849 171.197 226.034 196.007 226.034C220.817 226.034 241.001 205.849 241.001 181.039C241.001 169.526 236.655 159.009 229.517 151.043C236.655 143.077 241.001 132.56 241.001 121.047C241.001 96.2365 220.817 76.0519 196.007 76.0519C171.197 76.0519 151.012 96.2365 151.012 121.047Z" fill="url(#paint3_linear_1_38)"></path><path d="M270.998 121.047V181.039C270.998 205.849 291.182 226.034 315.992 226.034C340.802 226.034 360.987 205.849 360.987 181.039V121.047C360.987 96.2365 340.802 76.0519 315.992 76.0519C291.182 76.0519 270.998 96.2365 270.998 121.047ZM300.994 121.047C300.994 112.777 307.722 106.048 315.992 106.048C324.262 106.048 330.991 112.777 330.991 121.047V181.039C330.991 189.309 324.262 196.038 315.992 196.038C307.722 196.038 300.994 189.309 300.994 181.039V121.047Z" fill="url(#paint4_linear_1_38)"></path><path d="M459.799 158.714C463.857 167.142 467.416 175.898 470.379 184.739L475.146 198.959L503.587 189.426L498.821 175.206C495.461 165.182 491.425 155.256 486.827 145.704L480.322 132.189L453.294 145.2L459.799 158.714Z" fill="url(#paint5_linear_1_38)"></path><path d="M364.661 58.0941L377.786 65.3522L392.303 39.1023L379.179 31.8442C369.899 26.7118 360.215 22.1194 350.398 18.1948L336.472 12.6265L325.335 40.4792L339.263 46.0475C347.925 49.5111 356.47 53.5636 364.661 58.0941Z" fill="url(#paint6_linear_1_38)"></path><path d="M429.392 111.554L439.008 123.063L462.027 103.831L452.41 92.321C445.632 84.208 438.278 76.4319 430.553 69.2078L419.598 58.963L399.11 80.8724L410.065 91.1161C416.896 97.5044 423.399 104.381 429.392 111.554Z" fill="url(#paint7_linear_1_38)"></path><path d="M431.623 396.719C406.693 427.58 348.312 482.003 255.999 482.003C131.397 482.003 30.0264 380.632 30.0264 256.029C30.0264 201.559 49.992 149.628 85.7778 108.758L84.063 125.074L113.895 128.21L121.465 56.1883L49.4431 48.6192L46.3075 78.4507L70.5186 80.9954C25.385 128.405 0.0299988 190.574 0.0299988 256.031C0.0299988 396.971 115.063 512 255.999 512C340.236 512 410.494 470.601 454.955 415.569L464.381 403.903L441.047 385.052L431.623 396.719Z" fill="url(#paint8_linear_1_38)"></path><path d="M511.303 237.54L510.221 222.58L480.303 224.745L481.385 239.704C481.776 245.109 481.974 250.601 481.973 256.03C481.973 259.947 481.868 263.905 481.66 267.792L480.858 282.769L510.811 284.372L511.613 269.395C511.849 264.976 511.969 260.479 511.969 256.032C511.97 249.885 511.747 243.663 511.303 237.54Z" fill="url(#paint9_linear_1_38)"></path><path d="M471.562 322.879C468.731 331.748 465.296 340.555 461.352 349.054L455.038 362.659L482.247 375.287L488.56 361.683C493.032 352.048 496.928 342.06 500.138 331.996L504.698 317.708L476.121 308.59L471.562 322.879Z" fill="url(#paint10_linear_1_38)"></path><path d="M284.991 31.9222L299.865 33.849L303.719 4.10152L288.846 2.17475C278.377 0.818908 267.69 0.107993 257.081 0.0639981L242.083 0.00100565L241.957 29.9974L256.955 30.0604C266.323 30.0984 275.756 30.7253 284.991 31.9222Z" fill="url(#paint11_linear_1_38)"></path><path d="M174.652 46.2105C183.638 42.7239 192.694 39.7613 201.568 37.4065L216.064 33.559L208.369 4.56646L193.873 8.414C183.933 11.0517 173.815 14.3603 163.801 18.2458L149.819 23.6712L160.67 51.6369L174.652 46.2105Z" fill="url(#paint12_linear_1_38)"></path></g><defs><linearGradient id="paint0_linear_1_38" x1="270.998" y1="256.03" x2="270.998" y2="406.013" gradientUnits="userSpaceOnUse"><stop stop-color="#2CF3DA"></stop><stop offset="1" stop-color="#06B7A1"></stop></linearGradient><linearGradient id="paint1_linear_1_38" x1="181.008" y1="256.03" x2="181.008" y2="406.013" gradientUnits="userSpaceOnUse"><stop stop-color="#2CF3DA"></stop><stop offset="1" stop-color="#06B7A1"></stop></linearGradient><linearGradient id="paint2_linear_1_38" x1="353.488" y1="256.03" x2="353.488" y2="406.013" gradientUnits="userSpaceOnUse"><stop stop-color="#2CF3DA"></stop><stop offset="1" stop-color="#06B7A1"></stop></linearGradient><linearGradient id="paint3_linear_1_38" x1="196.007" y1="76.0519" x2="196.007" y2="226.034" gradientUnits="userSpaceOnUse"><stop stop-color="#2CF3DA"></stop><stop offset="1" stop-color="#06B7A1"></stop></linearGradient><linearGradient id="paint4_linear_1_38" x1="315.992" y1="76.0519" x2="315.992" y2="226.034" gradientUnits="userSpaceOnUse"><stop stop-color="#2CF3DA"></stop><stop offset="1" stop-color="#06B7A1"></stop></linearGradient><linearGradient id="paint5_linear_1_38" x1="478.44" y1="132.189" x2="478.44" y2="198.959" gradientUnits="userSpaceOnUse"><stop stop-color="#2CF3DA"></stop><stop offset="1" stop-color="#06B7A1"></stop></linearGradient><linearGradient id="paint6_linear_1_38" x1="358.819" y1="12.6265" x2="358.819" y2="65.3522" gradientUnits="userSpaceOnUse"><stop stop-color="#2CF3DA"></stop><stop offset="1" stop-color="#06B7A1"></stop></linearGradient><linearGradient id="paint7_linear_1_38" x1="430.569" y1="58.963" x2="430.569" y2="123.063" gradientUnits="userSpaceOnUse"><stop stop-color="#2CF3DA"></stop><stop offset="1" stop-color="#06B7A1"></stop></linearGradient><linearGradient id="paint8_linear_1_38" x1="232.205" y1="48.6192" x2="232.205" y2="512" gradientUnits="userSpaceOnUse"><stop stop-color="#2CF3DA"></stop><stop offset="1" stop-color="#06B7A1"></stop></linearGradient><linearGradient id="paint9_linear_1_38" x1="496.136" y1="222.58" x2="496.136" y2="284.372" gradientUnits="userSpaceOnUse"><stop stop-color="#2CF3DA"></stop><stop offset="1" stop-color="#06B7A1"></stop></linearGradient><linearGradient id="paint10_linear_1_38" x1="479.868" y1="308.59" x2="479.868" y2="375.287" gradientUnits="userSpaceOnUse"><stop stop-color="#2CF3DA"></stop><stop offset="1" stop-color="#06B7A1"></stop></linearGradient><linearGradient id="paint11_linear_1_38" x1="272.838" y1="0.00100565" x2="272.838" y2="33.849" gradientUnits="userSpaceOnUse"><stop stop-color="#2CF3DA"></stop><stop offset="1" stop-color="#06B7A1"></stop></linearGradient><linearGradient id="paint12_linear_1_38" x1="182.942" y1="4.56646" x2="182.942" y2="51.6369" gradientUnits="userSpaceOnUse"><stop stop-color="#2CF3DA"></stop><stop offset="1" stop-color="#06B7A1"></stop></linearGradient><clipPath id="clip0_1_38"><rect width="512" height="512" fill="white"></rect></clipPath></defs></svg>