<svg xmlns="http://www.w3.org/2000/svg" width="512" height="512" viewBox="0 0 512 512" fill="none"><path d="M403.412 124.88L502.417 25.875C506.921 21.375 506.921 14.071 502.417 9.572C497.913 5.068 490.617 5.068 486.114 9.572L383.554 112.13C345.405 89.444 302.123 73.37 255.973 73.37C164.652 73.37 84.494 136.216 33.316 188.943C-3.13401 226.545 -3.13401 285.454 33.324 323.064C54.024 344.393 79.536 367.323 108.55 387.135L9.55899 486.125C5.05499 490.625 5.05499 497.929 9.55899 502.428C14.063 506.932 21.359 506.932 25.862 502.428L128.409 399.882C166.553 422.558 209.83 438.625 255.973 438.625C297.482 438.625 340.463 425.534 383.706 399.72C389.178 396.455 390.965 389.376 387.699 383.908C384.426 378.44 377.34 376.657 371.891 379.918C332.266 403.57 293.263 415.565 255.973 415.565C216.51 415.565 179.001 402.226 145.29 382.999L193.935 334.353C211.003 347.896 232.532 356.052 255.965 356.052C311.151 356.052 356.045 311.18 356.045 256.02C356.045 232.574 347.884 211.033 334.331 193.957L386.858 141.43C415.877 160.77 441.445 183.746 462.07 205C489.4 233.118 489.4 278.876 462.078 306.991C447.051 322.45 431.805 336.404 416.778 348.467C411.809 352.453 411.013 359.711 414.999 364.677C418.992 369.639 426.251 370.442 431.205 366.452C446.976 353.797 462.919 339.201 478.614 323.066C515.154 285.456 515.154 226.54 478.614 188.934C457.918 167.611 432.414 144.689 403.412 124.88ZM178.99 256.023C178.99 213.553 213.519 179.002 255.966 179.002C273.047 179.002 288.794 184.66 301.581 194.104L194.081 301.604C184.643 288.827 178.99 273.092 178.99 256.023ZM332.987 256.023C332.987 298.467 298.436 332.995 255.966 332.995C238.897 332.995 223.162 327.343 210.385 317.908L317.885 210.408C327.33 223.194 332.987 238.942 332.987 256.023ZM318.029 177.656C300.952 164.104 279.411 155.942 255.966 155.942C200.803 155.942 155.931 200.837 155.931 256.022C155.931 279.455 164.087 300.984 177.632 318.053L125.103 370.581C96.076 351.241 70.503 328.261 49.876 307.007C22.606 278.881 22.606 233.116 49.868 204.998C97.938 155.468 172.715 96.428 255.974 96.428C295.443 96.428 332.958 109.774 366.675 129.009L318.029 177.656Z" fill="url(#paint0_linear_1_53)"></path><defs><linearGradient id="paint0_linear_1_53" x1="255.999" y1="6.194" x2="255.999" y2="505.806" gradientUnits="userSpaceOnUse"><stop stop-color="#2CF3DA"></stop><stop offset="1" stop-color="#06B7A1"></stop></linearGradient></defs></svg>