<svg xmlns="http://www.w3.org/2000/svg" width="512" height="512" viewBox="0 0 512 512" fill="none"><g clip-path="url(#clip0_1_3)"><path d="M256 512C306.632 512 356.127 496.986 398.226 468.856C440.325 440.727 473.137 400.745 492.513 353.967C511.889 307.189 516.959 255.716 507.081 206.057C497.203 156.398 472.822 110.783 437.019 74.9808C401.217 39.1785 355.602 14.7969 305.943 4.91908C256.284 -4.95873 204.811 0.110921 158.033 19.487C111.255 38.863 71.2734 71.6752 43.1438 113.774C15.0141 155.873 0 205.368 0 256C0.076791 323.872 27.0728 388.942 75.0655 436.935C123.058 484.927 188.128 511.923 256 512ZM256 17.0668C303.257 17.0668 349.452 31.08 388.744 57.3343C428.037 83.5886 458.661 120.905 476.746 164.564C494.83 208.224 499.562 256.265 490.342 302.614C481.123 348.962 458.367 391.536 424.951 424.952C391.536 458.367 348.962 481.123 302.614 490.342C256.265 499.562 208.224 494.83 164.564 476.746C120.905 458.661 83.5885 428.037 57.3342 388.744C31.0799 349.452 17.0667 303.257 17.0667 256C17.1389 192.653 42.3354 131.922 87.1284 87.1286C131.921 42.3355 192.653 17.1391 256 17.0668Z" fill="url(#paint0_linear_1_3)"></path><path d="M113.416 418.765C113.556 421.144 114.201 423.467 115.307 425.578C116.414 427.689 117.957 429.541 119.834 431.01C158.784 461.429 206.801 477.926 256.222 477.867C262.298 477.867 268.407 477.619 274.517 477.124C314.349 473.816 352.545 459.802 385.065 436.565C417.585 413.328 443.219 381.733 459.256 345.123C475.292 308.512 481.134 268.248 476.163 228.59C471.192 188.931 455.594 151.354 431.019 119.834C429.549 117.959 427.699 116.417 425.589 115.311C423.48 114.205 421.159 113.559 418.782 113.417C416.354 113.275 413.924 113.646 411.65 114.506C409.375 115.367 407.307 116.696 405.581 118.409L118.426 405.572C116.705 407.291 115.368 409.356 114.505 411.631C113.641 413.905 113.27 416.337 113.416 418.765ZM393.924 325.666C387.963 318.627 384.486 309.82 384.033 300.606C383.579 291.393 386.174 282.287 391.415 274.697L418.133 301.423L393.924 325.666ZM381.713 337.92L337.92 381.713C327.597 372.622 314.436 367.402 300.688 366.948C286.941 366.493 273.463 370.832 262.562 379.221L215.714 332.382L235.878 312.201C242.307 314.532 249.093 315.727 255.932 315.733C265.506 315.741 274.942 313.444 283.44 309.035C291.939 304.626 299.252 298.236 304.759 290.404C310.266 282.572 313.807 273.529 315.082 264.04C316.356 254.551 315.327 244.894 312.081 235.887L332.331 215.612L379.213 262.477C370.827 273.384 366.492 286.866 366.948 300.617C367.404 314.367 372.623 327.532 381.713 337.86V337.92ZM325.683 393.975L301.457 418.133L274.705 391.381C282.303 386.147 291.413 383.562 300.628 384.025C309.842 384.488 318.648 387.973 325.683 393.941V393.975ZM286.148 286.148C281.45 290.848 275.72 294.386 269.413 296.479C263.106 298.572 256.398 299.164 249.822 298.206L298.197 249.796C299.16 256.375 298.572 263.089 296.48 269.4C294.388 275.712 290.85 281.447 286.148 286.148ZM203.622 344.457L289.391 430.225C292.59 433.414 296.923 435.205 301.44 435.205C305.957 435.205 310.29 433.414 313.489 430.225L430.234 313.481C433.42 310.282 435.209 305.951 435.209 301.436C435.209 296.921 433.42 292.59 430.234 289.391L344.397 203.563L417.562 130.33C448.253 169.685 463.504 218.9 460.445 268.714C457.386 318.529 436.228 365.508 400.953 400.813C365.677 436.118 318.715 457.315 268.904 460.415C219.092 463.515 169.864 448.305 130.483 417.647L203.622 344.457Z" fill="url(#paint1_linear_1_3)"></path><path d="M94.2762 398.618C98.8313 398.616 103.199 396.805 106.419 393.583L393.583 106.419C395.302 104.701 396.636 102.637 397.498 100.364C398.36 98.0912 398.73 95.6614 398.583 93.2352C398.443 90.8559 397.798 88.5338 396.691 86.4227C395.585 84.3116 394.043 82.4598 392.166 80.9899C349.514 47.7306 296.175 31.2096 242.191 34.5368C188.207 37.864 137.3 60.81 99.0551 99.0552C60.8099 137.3 37.864 188.207 34.5367 242.191C31.2095 296.175 47.7306 349.514 80.9898 392.166C82.4589 394.043 84.3106 395.586 86.4219 396.693C88.5332 397.799 90.8556 398.444 93.2351 398.583C93.585 398.601 93.9349 398.618 94.2762 398.618ZM118.084 186.334C124.041 193.377 127.514 202.186 127.966 211.4C128.418 220.613 125.824 229.719 120.584 237.312L93.8666 210.577L118.084 186.334ZM130.287 174.123L174.08 130.278C184.404 139.372 197.567 144.594 211.317 145.052C225.067 145.509 238.549 141.174 249.455 132.787L296.286 179.618L276.053 199.902C265.424 196.061 253.92 195.328 242.888 197.789C231.857 200.251 221.756 205.804 213.767 213.799C205.778 221.794 200.233 231.9 197.78 242.933C195.328 253.966 196.07 265.469 199.919 276.096L179.669 296.371L132.787 249.506C141.173 238.599 145.508 225.117 145.052 211.366C144.596 197.616 139.377 184.45 130.287 174.123ZM186.317 118.076L210.543 93.8667L237.295 120.619C229.701 125.856 220.593 128.447 211.38 127.992C202.166 127.537 193.358 124.061 186.317 118.101V118.076ZM225.852 225.852C230.549 221.15 236.279 217.611 242.586 215.516C248.893 213.421 255.602 212.829 262.178 213.786L213.803 262.212C212.838 255.632 213.425 248.917 215.517 242.604C217.609 236.291 221.148 230.554 225.852 225.852ZM51.8997 238.865C56.1784 190.72 77.2497 145.612 111.427 111.433C145.604 77.254 190.711 56.1807 238.856 51.8997C244.517 51.4332 250.16 51.2 255.787 51.2C301.334 51.1408 345.597 66.2956 381.551 94.2592V94.336L308.412 167.526L222.618 81.7749C219.372 78.6719 215.055 76.9401 210.564 76.9401C206.074 76.9401 201.757 78.6719 198.511 81.7749L81.7749 198.511C78.5858 201.71 76.795 206.043 76.795 210.56C76.795 215.077 78.5858 219.41 81.7749 222.609L167.603 308.437L94.4383 381.67C62.7996 341.115 47.6103 290.123 51.8997 238.865Z" fill="url(#paint2_linear_1_3)"></path><path d="M314.701 314.701C311.12 318.281 308.681 322.842 307.692 327.808C306.704 332.774 307.211 337.922 309.148 342.6C311.085 347.279 314.367 351.277 318.577 354.091C322.787 356.904 327.736 358.405 332.8 358.405C337.864 358.405 342.813 356.904 347.023 354.091C351.233 351.277 354.515 347.279 356.452 342.6C358.389 337.922 358.896 332.774 357.908 327.808C356.919 322.842 354.48 318.281 350.899 314.701C346.098 309.902 339.588 307.205 332.8 307.205C326.012 307.205 319.501 309.902 314.701 314.701ZM338.833 338.833C337.64 340.027 336.119 340.84 334.464 341.169C332.808 341.499 331.093 341.33 329.533 340.684C327.974 340.038 326.641 338.945 325.703 337.541C324.765 336.138 324.265 334.488 324.265 332.8C324.265 331.112 324.765 329.462 325.703 328.059C326.641 326.656 327.974 325.562 329.533 324.916C331.093 324.27 332.808 324.101 334.464 324.431C336.119 324.76 337.64 325.573 338.833 326.767C340.433 328.367 341.331 330.537 341.331 332.8C341.331 335.063 340.433 337.233 338.833 338.833Z" fill="url(#paint3_linear_1_3)"></path><path d="M183.467 209.067C186.828 209.072 190.156 208.414 193.262 207.129C196.368 205.845 199.19 203.96 201.566 201.583C205.757 197.398 208.368 191.889 208.953 185.995C209.538 180.101 208.061 174.186 204.774 169.259C201.487 164.332 196.593 160.697 190.926 158.974C185.259 157.251 179.17 157.546 173.696 159.809C168.223 162.073 163.703 166.164 160.908 171.386C158.113 176.608 157.215 182.638 158.367 188.447C159.52 194.257 162.651 199.488 167.228 203.248C171.805 207.008 177.544 209.064 183.467 209.067ZM177.434 177.442C178.221 176.627 179.162 175.977 180.203 175.53C181.245 175.083 182.364 174.847 183.497 174.837C184.63 174.827 185.754 175.043 186.803 175.472C187.851 175.902 188.804 176.535 189.605 177.336C190.407 178.138 191.04 179.09 191.469 180.139C191.898 181.188 192.114 182.311 192.104 183.444C192.095 184.578 191.859 185.697 191.412 186.738C190.965 187.779 190.315 188.721 189.5 189.508C188.713 190.323 187.771 190.973 186.73 191.421C185.689 191.868 184.569 192.103 183.436 192.113C182.303 192.123 181.179 191.907 180.13 191.478C179.082 191.049 178.129 190.415 177.328 189.614C176.527 188.813 175.893 187.86 175.464 186.811C175.035 185.763 174.819 184.639 174.829 183.506C174.839 182.373 175.074 181.253 175.521 180.212C175.968 179.171 176.619 178.229 177.434 177.442Z" fill="url(#paint4_linear_1_3)"></path></g><defs><linearGradient id="paint0_linear_1_3" x1="256" y1="0" x2="256" y2="512" gradientUnits="userSpaceOnUse"><stop stop-color="#2CF3DA"></stop><stop offset="1" stop-color="#06B7A1"></stop></linearGradient><linearGradient id="paint1_linear_1_3" x1="295.635" y1="113.387" x2="295.635" y2="477.867" gradientUnits="userSpaceOnUse"><stop stop-color="#2CF3DA"></stop><stop offset="1" stop-color="#06B7A1"></stop></linearGradient><linearGradient id="paint2_linear_1_3" x1="216.366" y1="34.1166" x2="216.366" y2="398.618" gradientUnits="userSpaceOnUse"><stop stop-color="#2CF3DA"></stop><stop offset="1" stop-color="#06B7A1"></stop></linearGradient><linearGradient id="paint3_linear_1_3" x1="332.8" y1="307.205" x2="332.8" y2="358.405" gradientUnits="userSpaceOnUse"><stop stop-color="#2CF3DA"></stop><stop offset="1" stop-color="#06B7A1"></stop></linearGradient><linearGradient id="paint4_linear_1_3" x1="183.478" y1="157.867" x2="183.478" y2="209.067" gradientUnits="userSpaceOnUse"><stop stop-color="#2CF3DA"></stop><stop offset="1" stop-color="#06B7A1"></stop></linearGradient><clipPath id="clip0_1_3"><rect width="512" height="512" fill="white"></rect></clipPath></defs></svg>