<svg xmlns="http://www.w3.org/2000/svg" width="512" height="512" viewBox="0 0 512 512" fill="none"><g clip-path="url(#clip0_1_9)"><mask id="mask0_1_9" style="mask-type:luminance" maskUnits="userSpaceOnUse" x="0" y="0" width="512" height="512"><path d="M0 3.05176e-05H512V512H0V3.05176e-05Z" fill="white"></path></mask><g mask="url(#mask0_1_9)"><path d="M437.088 89.2467C477.492 133.102 502.169 191.669 502.169 256C502.169 391.955 391.955 502.168 256.001 502.168C120.046 502.168 9.83154 391.955 9.83154 256C9.83154 120.045 120.046 9.8317 256.001 9.8317C266.162 9.8317 276.18 10.4477 286.019 11.6437" stroke="url(#paint0_linear_1_9)" stroke-width="26.6667" stroke-miterlimit="10" stroke-linecap="round" stroke-linejoin="round"></path><path d="M159.604 102.758C229.536 58.679 323.07 67.097 383.986 128.014C454.671 198.699 454.671 313.301 383.986 383.986C313.302 454.671 198.699 454.671 128.014 383.986C67.0069 322.98 58.6539 229.259 102.954 159.294" stroke="url(#paint1_linear_1_9)" stroke-width="26.6667" stroke-miterlimit="10" stroke-linecap="round" stroke-linejoin="round"></path><path d="M435.333 125.833V87.8332H473.333" stroke="url(#paint2_linear_1_9)" stroke-width="26.6667" stroke-miterlimit="10" stroke-linecap="round" stroke-linejoin="round"></path><path d="M231.55 256C231.55 269.503 242.497 280.45 256 280.45C269.503 280.45 280.45 269.503 280.45 256C280.45 242.497 269.503 231.55 256 231.55C242.497 231.55 231.55 242.497 231.55 256Z" stroke="url(#paint3_linear_1_9)" stroke-width="26.6667" stroke-miterlimit="10" stroke-linecap="round" stroke-linejoin="round"></path><path d="M398.333 256.163H386" stroke="url(#paint4_linear_1_9)" stroke-width="26.6667" stroke-miterlimit="10" stroke-linecap="round" stroke-linejoin="round"></path><path d="M113.667 255.837H126" stroke="url(#paint5_linear_1_9)" stroke-width="26.6667" stroke-miterlimit="10" stroke-linecap="round" stroke-linejoin="round"></path><path d="M256.163 113.667V126" stroke="url(#paint6_linear_1_9)" stroke-width="26.6667" stroke-miterlimit="10" stroke-linecap="round" stroke-linejoin="round"></path><path d="M255.837 398.333V386" stroke="url(#paint7_linear_1_9)" stroke-width="26.6667" stroke-miterlimit="10" stroke-linecap="round" stroke-linejoin="round"></path><path d="M238.711 238.711L198.804 198.804" stroke="url(#paint8_linear_1_9)" stroke-width="26.6667" stroke-miterlimit="10" stroke-linecap="round" stroke-linejoin="round"></path><path d="M273.289 238.711L347.687 164.313" stroke="url(#paint9_linear_1_9)" stroke-width="26.6667" stroke-miterlimit="10" stroke-linecap="round" stroke-linejoin="round"></path></g></g><defs><linearGradient id="paint0_linear_1_9" x1="256" y1="502.168" x2="256" y2="9.8317" gradientUnits="userSpaceOnUse"><stop stop-color="#2CF3DA"></stop><stop offset="1" stop-color="#06B7A1"></stop></linearGradient><linearGradient id="paint1_linear_1_9" x1="256" y1="437" x2="256" y2="75.0001" gradientUnits="userSpaceOnUse"><stop stop-color="#2CF3DA"></stop><stop offset="1" stop-color="#06B7A1"></stop></linearGradient><linearGradient id="paint2_linear_1_9" x1="454.333" y1="125.833" x2="454.333" y2="87.8332" gradientUnits="userSpaceOnUse"><stop stop-color="#2CF3DA"></stop><stop offset="1" stop-color="#06B7A1"></stop></linearGradient><linearGradient id="paint3_linear_1_9" x1="256" y1="280.45" x2="256" y2="231.55" gradientUnits="userSpaceOnUse"><stop stop-color="#2CF3DA"></stop><stop offset="1" stop-color="#06B7A1"></stop></linearGradient><linearGradient id="paint4_linear_1_9" x1="392.167" y1="256.163" x2="392.167" y2="255.163" gradientUnits="userSpaceOnUse"><stop stop-color="#2CF3DA"></stop><stop offset="1" stop-color="#06B7A1"></stop></linearGradient><linearGradient id="paint5_linear_1_9" x1="119.833" y1="255.837" x2="119.833" y2="254.837" gradientUnits="userSpaceOnUse"><stop stop-color="#2CF3DA"></stop><stop offset="1" stop-color="#06B7A1"></stop></linearGradient><linearGradient id="paint6_linear_1_9" x1="256.663" y1="126" x2="256.663" y2="113.667" gradientUnits="userSpaceOnUse"><stop stop-color="#2CF3DA"></stop><stop offset="1" stop-color="#06B7A1"></stop></linearGradient><linearGradient id="paint7_linear_1_9" x1="256.337" y1="398.333" x2="256.337" y2="386" gradientUnits="userSpaceOnUse"><stop stop-color="#2CF3DA"></stop><stop offset="1" stop-color="#06B7A1"></stop></linearGradient><linearGradient id="paint8_linear_1_9" x1="218.758" y1="238.711" x2="218.758" y2="198.804" gradientUnits="userSpaceOnUse"><stop stop-color="#2CF3DA"></stop><stop offset="1" stop-color="#06B7A1"></stop></linearGradient><linearGradient id="paint9_linear_1_9" x1="310.488" y1="238.711" x2="310.488" y2="164.313" gradientUnits="userSpaceOnUse"><stop stop-color="#2CF3DA"></stop><stop offset="1" stop-color="#06B7A1"></stop></linearGradient><clipPath id="clip0_1_9"><rect width="512" height="512" fill="white"></rect></clipPath></defs></svg>